# xmcd
#
# Track frame offsets:
#	150
#	15974
#	31057
#	47816
#	59850
#	75331
#	93639
#	114019
#	132003
#	154662
#	175536
#	185512
#	199283
#	213165
#	230696
#	246221
#	262522
#
# Disc length: 3671 seconds
#
# Revision: 1
# Processed by: cddbd v1.5PL3 Copyright (c) Steve Scherf et al.
# Submitted via: EasyCDDAExtractor 7.0.0.1
#
DISCID=cf0e5511
DTITLE=Dave Earl - San Francisco Bay Blues Vol. 2
DYEAR=1900
DGENRE=Blues
TTITLE0=I Feel So Good
TTITLE1=California Blues
TTITLE2=Blues Before Sunrise
TTITLE3=Bay Bounce
TTITLE4=CC and O Blues
TTITLE5=John Henry
TTITLE6=National Conscience
TTITLE7=See See Rider
TTITLE8=Mannish Boy
TTITLE9=Linda Lou
TTITLE10=Powder Keg
TTITLE11=Sugar Mama
TTITLE12=Easy Ridin Mama
TTITLE13=Louis
TTITLE14=Number Nine Train
TTITLE15=Goodnight Irene
TTITLE16=Frisco Boogie
EXTD=
EXTT0=
EXTT1=
EXTT2=
EXTT3=
EXTT4=
EXTT5=
EXTT6=
EXTT7=
EXTT8=
EXTT9=
EXTT10=
EXTT11=
EXTT12=
EXTT13=
EXTT14=
EXTT15=
EXTT16=
PLAYORDER=
